# xmcd
#
# Track frame offsets: 
#        150
#        6607
#        18400
#        32062
#        42608
#        57882
#        77635
#        89164
#        105371
#        116285
#        127765
#        145652
#        164683
#        177411
#        190215
#        201458
#        216156
#
# Disc length: 3036 seconds
#
# Revision: 0
# Processed by: cddbd v1.5.2PL0 Copyright (c) Steve Scherf et al.
# Submitted via: ExactAudioCopy v1.1
#
DISCID=f10bda11
DTITLE=Kysucká vrchárska HELIGÓNKA - Na Petrankach v poli
DYEAR=2014
DGENRE=Folklore
TTITLE0=Vrchárska polka
TTITLE1=V podolinskej kasárni
TTITLE2=Dedinka moja
TTITLE3=Žala som trávičku
TTITLE4=Chodila som po zahrádke
TTITLE5=Pod Inovcom
TTITLE6=Rozvi sa, stromečku
TTITLE7=Okolo mlyna
TTITLE8=Žala by
TTITLE9=Na Petrankach v poli
TTITLE10=Rád som sa túlal
TTITLE11=Tie ružičky
TTITLE12=Svietila mi jasná hviezdička
TTITLE13=Mesiačik už dávno vyšiel
TTITLE14=Toto je ten chodník
TTITLE15=Dievčatko krásne
TTITLE16=Ten petranský holý vŕšok
EXTD=
EXTT0=
EXTT1=
EXTT2=
EXTT3=
EXTT4=
EXTT5=
EXTT6=
EXTT7=
EXTT8=
EXTT9=
EXTT10=
EXTT11=
EXTT12=
EXTT13=
EXTT14=
EXTT15=
EXTT16=
PLAYORDER=
